#N canvas 505 106 1159 756 12;
#X obj 261 304 print;
#X obj 36 68 tgl 15 0 empty empty empty 17 7 0 10 -262144 -1 -1 1 1
;
#X msg 36 99 \; pd dsp \$1;
#X text 28 23 turn audio on and off;
#X text 680 20 init table for sample;
#N canvas 0 50 450 250 (subpatch) 0;
#X array soundData 792197 float 2;
#X coords 0 1 792197 -1 200 140 1;
#X restore 685 72 graph;
#X obj 677 555 dac~;
#X text 933 409 length of geiger sound file: ca 0.033 sec;
#X msg 937 436 0 \, 1585 33;
#X obj 677 512 *~ 0.3;
#X obj 676 479 geiger_counter;
#N canvas 0 50 450 250 (subpatch) 0;
#X array geiger 1585 float 2;
#X coords 0 1 1585 -1 200 140 1;
#X restore 916 72 graph;
#N canvas 0 50 450 250 (subpatch) 0;
#X array breath 336001 float 2;
#X coords 0 1 336001 -1 200 140 1 0 0;
#X restore 1145 73 graph;
#X obj 681 388 dac~;
#X obj 681 345 *~ 0.3;
#X obj 680 312 breathing;
#X msg 941 269 0 \, 336001 7000;
#X text 937 242 length of breath sound file: ca 7 sec;
#X msg 331 86 listen 6666;
#X obj 331 121 netreceive -u -b;
#X obj 331 161 oscparse;
#X obj 331 203 list trim;
#X obj 681 274 route breath;
#X obj 677 441 route geiger;
#X text 265 22 receive OSC (https://hvc.berlin/Puredata/using-osc-in-pure-data/)
;
#X connect 1 0 2 0;
#X connect 8 0 10 0;
#X connect 9 0 6 0;
#X connect 9 0 6 1;
#X connect 10 0 9 0;
#X connect 14 0 13 0;
#X connect 14 0 13 1;
#X connect 15 0 14 0;
#X connect 16 0 15 0;
#X connect 18 0 19 0;
#X connect 19 0 20 0;
#X connect 20 0 21 0;
#X connect 21 0 0 0;
#X connect 21 0 23 0;
#X connect 21 0 22 0;
#X connect 22 0 15 0;
#X connect 23 0 10 0;
