#N canvas 10 80 600 300 10;
#X obj 261 304 print;
#X obj 36 68 tgl 15 0 empty empty empty 17 7 0 10 -262144 -1 -1 1 1
;
#X msg 36 99 \; pd dsp \$1;
#X text 28 23 turn audio on and off;
#N canvas 0 50 450 250 (subpatch) 0;
#X array asthma 42889 float 2;
#X coords 0 1 42889 -1 200 140 1 0 0;
#X restore 685 72 graph;
#X obj 677 555 dac~;
#X text 933 409 length of geiger sound file: ca 0.033 sec;
#X msg 937 436 0 \, 1585 33;
#X obj 677 512 *~ 0.3;
#X obj 676 479 geiger_counter;
#N canvas 0 50 450 250 (subpatch) 0;
#X array geiger 1585 float 2;
#X coords 0 1 1585 -1 200 140 1;
#X restore 916 72 graph;
#N canvas 0 50 450 250 (subpatch) 0;
#X array breath 336001 float 2;
#X coords 0 1 336001 -1 200 140 1 0 0;
#X restore 1145 73 graph;
#X obj 681 388 dac~;
#X obj 681 345 *~ 0.3;
#X obj 680 312 breathing;
#X msg 941 269 0 \, 336001 7000;
#X text 937 242 length of breath sound file: ca 7 sec;
#X msg 331 86 listen 6666;
#X obj 331 121 netreceive -u -b;
#X obj 331 161 oscparse;
#X obj 331 203 list trim;
#X obj 681 274 route breath;
#X obj 677 441 route geiger;
#X text 265 22 receive OSC (https://hvc.berlin/Puredata/using-osc-in-pure-data/)
;
#X obj 675 748 dac~;
#X obj 675 705 *~ 0.3;
#N canvas 0 50 450 250 (subpatch) 0;
#X array air_bubble 8837 float 2;
#X coords 0 1 8837 -1 200 140 1 0 0;
#X restore 1371 74 graph;
#X msg 935 629 0 \, 8837 200;
#X obj 675 634 route air_bubble;
#X obj 674 672 air_bubble;
#X text 931 602 length of air_bubble sound file: ca 0.2 sec;
#N canvas 0 50 450 250 (subpatch) 0;
#X array honk 53788 float 2;
#X coords 0 1 53788 -1 200 140 1 0 0;
#X restore 1595 73 graph;
#X obj 674 942 dac~;
#X obj 674 899 *~ 0.3;
#X obj 673 1136 dac~;
#X obj 673 1093 *~ 0.3;
#X text 929 990 length of honk sound file: ca 1.1205 sec;
#X msg 933 1017 0 \, 53788 1120;
#X obj 672 1060 honk;
#X obj 673 1022 route honk;
#X text 930 796 length of asthma sound file: ca 0.893 sec;
#X obj 674 828 route asthma;
#X obj 673 866 asthma;
#X msg 934 823 0 \, 42889 893;
#N canvas 0 50 450 250 (subpatch) 0;
#X array wind_chimes 45803 float 2;
#X coords 0 1 45803 -1 200 140 1 0 0;
#X restore 1817 73 graph;
#N canvas 0 50 450 250 (subpatch) 0;
#X array wind_leaves 441002 float 2;
#X coords 0 1 441002 -1 200 140 1 0 0;
#X restore 2036 73 graph;
#N canvas 0 50 450 250 (subpatch) 0;
#X array wind 110022 float 2;
#X coords 0 1 110022 -1 200 140 1 0 0;
#X restore 2257 74 graph;
#X obj 1451 389 dac~;
#X obj 1449 587 dac~;
#X obj 1446 784 dac~;
#X obj 1446 741 *~ 0.3;
#X obj 1446 670 route wind;
#X obj 1445 708 wind;
#X obj 1449 473 route wind_leaves;
#X obj 1448 511 wind_leaves;
#X obj 1450 313 wind_chimes;
#X obj 1451 275 route wind_chimes;
#X text 680 20 init tables for samples;
#X text 1702 638 length of wind sound file: ca 2.495 sec;
#X msg 1706 665 0 \, 110022 2495;
#X obj 1444 976 dac~;
#X obj 1444 933 *~ 0.3;
#X obj 1444 1175 dac~;
#X obj 1444 862 route music;
#X obj 1443 900 music;
#X obj 1444 1061 route noise;
#X obj 1443 1099 noise;
#X obj 2125 394 dac~;
#X obj 2125 351 *~ 0.3;
#X obj 2125 280 route bees;
#X obj 2124 318 bees;
#X obj 2120 576 dac~;
#X obj 2120 462 route birds;
#X obj 2119 500 birds;
#X obj 2117 759 dac~;
#N canvas 0 50 450 250 (subpatch) 0;
#X array music 9.17626e+06 float 2;
#X coords 0 1 9.17626e+06 -1 200 140 1 0 0;
#X restore 2478 74 graph;
#N canvas 0 50 450 250 (subpatch) 0;
#X array noise 441001 float 2;
#X coords 0 1 441001 -1 200 140 1 0 0;
#X restore 2699 74 graph;
#N canvas 0 50 450 250 (subpatch) 0;
#X array bees 441004 float 2;
#X coords 0 1 441004 -1 200 140 1 0 0;
#X restore 2917 74 graph;
#N canvas 0 50 450 250 (subpatch) 0;
#X array birds 220505 float 2;
#X coords 0 1 220505 -1 200 140 1 0 0;
#X restore 3134 74 graph;
#N canvas 0 50 450 250 (subpatch) 0;
#X array bird_alarm 84364 float 2;
#X coords 0 1 84364 -1 200 140 1 0 0;
#X restore 3350 74 graph;
#X obj 2117 645 route bird_alarm;
#X obj 2116 683 bird_alarm;
#X text 1707 243 length of wind_chimes sound file: ca 1.039 sec;
#X msg 1711 270 0 \, 45803 1039;
#X obj 1449 544 *~ 0.6;
#X text 1705 441 length of wind_leaves sound file: ca 10 sec;
#X msg 1709 468 0 \, 441002 10000;
#X obj 1451 346 *~ 0.1;
#X text 2373 613 length of bird_alarm sound file: ca 1.76 sec;
#X text 2376 430 length of birds sound file: ca 5 sec;
#X text 2381 248 length of bees sound file: ca 10 sec;
#X msg 2385 275 0 \, 441004 10000;
#X msg 2377 640 0 \, 84364 1760;
#X obj 2117 716 *~ 0.8;
#X msg 1704 857 0 \, 9.17626e+06 208079;
#X text 1700 830 length of music sound file: ca 3:28.079 min;
#X text 1700 1029 length of noise sound file: ca 10 sec;
#X msg 1704 1056 0 \, 441001 10000;
#X obj 1444 1132 *~ 0.1;
#X msg 2380 457 0 \, 220501 5000;
#X obj 2120 533 *~ 0.2;
#X connect 1 0 2 0;
#X connect 7 0 9 0;
#X connect 8 0 5 0;
#X connect 8 0 5 1;
#X connect 9 0 8 0;
#X connect 13 0 12 0;
#X connect 13 0 12 1;
#X connect 14 0 13 0;
#X connect 15 0 14 0;
#X connect 17 0 18 0;
#X connect 18 0 19 0;
#X connect 19 0 20 0;
#X connect 20 0 22 0;
#X connect 20 0 21 0;
#X connect 20 0 28 0;
#X connect 20 0 41 0;
#X connect 20 0 39 0;
#X connect 20 0 56 0;
#X connect 20 0 53 0;
#X connect 20 0 51 0;
#X connect 20 0 63 0;
#X connect 20 0 65 0;
#X connect 20 0 69 0;
#X connect 20 0 72 0;
#X connect 20 0 80 0;
#X connect 21 0 14 0;
#X connect 22 0 9 0;
#X connect 25 0 24 0;
#X connect 25 0 24 1;
#X connect 27 0 29 0;
#X connect 28 0 29 0;
#X connect 29 0 25 0;
#X connect 33 0 32 0;
#X connect 33 0 32 1;
#X connect 35 0 34 0;
#X connect 35 0 34 1;
#X connect 37 0 38 0;
#X connect 38 0 35 0;
#X connect 39 0 38 0;
#X connect 41 0 42 0;
#X connect 42 0 33 0;
#X connect 43 0 42 0;
#X connect 50 0 49 0;
#X connect 50 0 49 1;
#X connect 51 0 52 0;
#X connect 52 0 50 0;
#X connect 53 0 54 0;
#X connect 54 0 84 0;
#X connect 55 0 87 0;
#X connect 56 0 55 0;
#X connect 59 0 52 0;
#X connect 61 0 60 0;
#X connect 61 0 60 1;
#X connect 63 0 64 0;
#X connect 64 0 61 0;
#X connect 65 0 66 0;
#X connect 66 0 98 0;
#X connect 68 0 67 0;
#X connect 68 0 67 1;
#X connect 69 0 70 0;
#X connect 70 0 68 0;
#X connect 72 0 73 0;
#X connect 73 0 100 0;
#X connect 80 0 81 0;
#X connect 81 0 93 0;
#X connect 83 0 55 0;
#X connect 84 0 48 0;
#X connect 84 0 48 1;
#X connect 86 0 54 0;
#X connect 87 0 47 0;
#X connect 87 0 47 1;
#X connect 91 0 70 0;
#X connect 92 0 81 0;
#X connect 93 0 74 0;
#X connect 93 0 74 1;
#X connect 94 0 64 0;
#X connect 97 0 66 0;
#X connect 98 0 62 0;
#X connect 98 0 62 1;
#X connect 99 0 73 0;
#X connect 100 0 71 0;
#X connect 100 0 71 1;
