#N canvas -9 -9 1920 976 12;
#X obj 261 304 print;
#X obj 36 68 tgl 15 0 empty empty empty 17 7 0 10 -262144 -1 -1 1 1
;
#X msg 36 99 \; pd dsp \$1;
#X text 28 23 turn audio on and off;
#X text 680 20 init table for sample;
#N canvas 0 50 450 250 (subpatch) 0;
#X array asthma 42889 float 2;
#X coords 0 1 42889 -1 200 140 1 0 0;
#X restore 685 72 graph;
#X obj 677 555 dac~;
#X text 933 409 length of geiger sound file: ca 0.033 sec;
#X msg 937 436 0 \, 1585 33;
#X obj 677 512 *~ 0.3;
#X obj 676 479 geiger_counter;
#N canvas 0 50 450 250 (subpatch) 0;
#X array geiger 1585 float 2;
#X coords 0 1 1585 -1 200 140 1;
#X restore 916 72 graph;
#N canvas 0 50 450 250 (subpatch) 0;
#X array breath 336001 float 2;
#X coords 0 1 336001 -1 200 140 1 0 0;
#X restore 1145 73 graph;
#X obj 681 388 dac~;
#X obj 681 345 *~ 0.3;
#X obj 680 312 breathing;
#X msg 941 269 0 \, 336001 7000;
#X text 937 242 length of breath sound file: ca 7 sec;
#X msg 331 86 listen 6666;
#X obj 331 121 netreceive -u -b;
#X obj 331 161 oscparse;
#X obj 331 203 list trim;
#X obj 681 274 route breath;
#X obj 677 441 route geiger;
#X text 265 22 receive OSC (https://hvc.berlin/Puredata/using-osc-in-pure-data/)
;
#X obj 675 748 dac~;
#X obj 675 705 *~ 0.3;
#N canvas 0 50 450 250 (subpatch) 0;
#X array air_bubble 8837 float 2;
#X coords 0 1 8837 -1 200 140 1 0 0;
#X restore 1371 74 graph;
#X msg 935 629 0 \, 8837 200;
#X obj 675 634 route air_bubble;
#X obj 674 672 air_bubble;
#X text 931 602 length of air_bubble sound file: ca 0.2 sec;
#N canvas 0 50 450 250 (subpatch) 0;
#X array honk 53788 float 2;
#X coords 0 1 53788 -1 200 140 1 0 0;
#X restore 1595 73 graph;
#X obj 674 942 dac~;
#X obj 674 899 *~ 0.3;
#X obj 673 1136 dac~;
#X obj 673 1093 *~ 0.3;
#X text 929 990 length of honk sound file: ca 1.1205 sec;
#X msg 933 1017 0 \, 53788 1120;
#X obj 672 1060 honk;
#X obj 673 1022 route honk;
#X text 930 796 length of asthma sound file: ca 0.893 sec;
#X obj 674 828 route asthma;
#X obj 673 866 asthma;
#X msg 934 823 0 \, 42889 893;
#X connect 1 0 2 0;
#X connect 8 0 10 0;
#X connect 9 0 6 0;
#X connect 9 0 6 1;
#X connect 10 0 9 0;
#X connect 14 0 13 0;
#X connect 14 0 13 1;
#X connect 15 0 14 0;
#X connect 16 0 15 0;
#X connect 18 0 19 0;
#X connect 19 0 20 0;
#X connect 20 0 21 0;
#X connect 21 0 0 0;
#X connect 21 0 23 0;
#X connect 21 0 22 0;
#X connect 21 0 29 0;
#X connect 21 0 42 0;
#X connect 21 0 40 0;
#X connect 22 0 15 0;
#X connect 23 0 10 0;
#X connect 26 0 25 0;
#X connect 26 0 25 1;
#X connect 28 0 30 0;
#X connect 29 0 30 0;
#X connect 30 0 26 0;
#X connect 34 0 33 0;
#X connect 34 0 33 1;
#X connect 36 0 35 0;
#X connect 36 0 35 1;
#X connect 38 0 39 0;
#X connect 39 0 36 0;
#X connect 40 0 39 0;
#X connect 42 0 43 0;
#X connect 43 0 34 0;
#X connect 44 0 43 0;
